Coordinates
version=1
nRows=11
nColumns=63
inDegrees=yes

Units are S.I. units (second, meters, Newtons, ...)
If the header above contains a line with 'inDegrees', this indicates whether rotational values are in degrees (yes) or radians (no).

endheader
time	pelvis_tilt	pelvis_list	pelvis_rotation	pelvis_tx	pelvis_ty	pelvis_tz	hip_flexion_r	hip_adduction_r	hip_rotation_r	knee_angle_r	knee_angle_r_beta	ankle_angle_r	subtalar_angle_r	mtp_angle_r	hip_flexion_l	hip_adduction_l	hip_rotation_l	knee_angle_l	knee_angle_l_beta	ankle_angle_l	subtalar_angle_l	mtp_angle_l	L5_S1_Flex_Ext	L5_S1_Lat_Bending	L5_S1_axial_rotation	L4_L5_Flex_Ext	L4_L5_Lat_Bending	L4_L5_axial_rotation	L3_L4_Flex_Ext	L3_L4_Lat_Bending	L3_L4_axial_rotation	L2_L3_Flex_Ext	L2_L3_Lat_Bending	L2_L3_axial_rotation	L1_L2_Flex_Ext	L1_L2_Lat_Bending	L1_L2_axial_rotation	L1_T12_Flex_Ext	L1_T12_Lat_Bending	L1_T12_axial_rotation	Abs_r3	Abs_r2	Abs_r1	Abs_t1	Abs_t2	neck_flexion	neck_bending	neck_rotation	arm_flex_r	arm_add_r	arm_rot_r	elbow_flex_r	pro_sup_r	wrist_flex_r	wrist_dev_r	arm_flex_l	arm_add_l	arm_rot_l	elbow_flex_l	pro_sup_l	wrist_flex_l	wrist_dev_l
1.700000	-0.696451	0.569018	67.393842	0.211619	0.943260	0.464490	0.674927	2.398655	4.498242	17.380321	0.303344	33.591106	-12.434996	0.000000	-7.490035	-1.740301	14.338608	0.354048	0.006179	32.483138	-17.048552	0.000000	-0.159152	0.385809	1.160425	-0.295562	0.513126	1.232951	-0.261472	0.938056	1.232951	-0.181895	0.938056	1.015372	-0.147789	0.786741	0.942845	-0.090940	0.597618	0.870319	-1.136810	4.364346	6.453935	0.000000	0.000000	19.651325	2.217873	-1.416338	191.140840	-160.548400	293.955558	9.235824	0.899661	-9.741428	-3.422191	13.520309	-13.069201	134.615490	3.677642	3.194249	-8.255252	-5.648960
1.720000	-0.594158	-0.134457	67.838993	0.209368	0.944338	0.465831	1.518345	2.680076	3.716521	17.434767	0.304294	33.045181	-12.527619	0.000000	-6.602720	-2.063414	14.528929	0.503788	0.008793	32.146168	-16.935946	0.000000	-0.111332	0.449067	1.042604	-0.206754	0.597259	1.107766	-0.182907	1.091862	1.107766	-0.127241	1.091862	0.912278	-0.103383	0.915737	0.847115	-0.063615	0.695605	0.781953	-0.795231	5.079936	5.798649	0.000000	0.000000	20.143783	2.020087	-0.650411	192.429858	-160.090199	294.223871	10.039189	2.731210	-9.174879	-3.891701	14.547099	-12.897978	138.795269	3.210089	2.902250	-8.616025	-7.444142
1.740000	-0.471656	-0.796281	68.368721	0.207022	0.945653	0.466869	2.267861	2.951282	2.907550	17.423002	0.304089	32.485770	-12.605386	0.000000	-5.727505	-2.384022	14.629168	0.733408	0.012800	31.835112	-16.612346	0.000000	-0.064097	0.513505	0.924146	-0.119034	0.682961	0.981905	-0.105305	1.248536	0.981905	-0.073256	1.248536	0.808628	-0.059520	1.047139	0.750869	-0.036625	0.795419	0.693110	-0.457838	5.808869	5.139823	0.000000	0.000000	20.598244	1.794830	0.027852	193.479427	-159.316699	293.146608	11.300840	6.213602	-8.975391	-4.247678	15.620729	-12.816706	142.601118	2.868679	2.558581	-8.582621	-9.165723
1.760000	-0.319845	-1.392014	68.924249	0.204643	0.947200	0.467668	2.912058	3.207846	2.096977	17.373012	0.303216	31.919865	-12.617338	0.000000	-4.899422	-2.696240	14.561646	1.026604	0.017918	31.566455	-16.074006	0.000000	-0.021071	0.579908	0.817774	-0.039132	0.771277	0.868885	-0.034618	1.409987	0.868885	-0.024082	1.409987	0.715552	-0.019567	1.182548	0.664441	-0.012040	0.898277	0.613330	-0.150511	6.560031	4.548213	0.000000	0.000000	20.990656	1.520857	0.640250	194.134363	-158.178603	290.817073	13.115920	11.181590	-9.163978	-4.570784	16.717988	-12.814100	145.996725	2.590851	2.230797	-8.057973	-10.841141
1.780000	-0.138343	-1.901751	69.475945	0.202270	0.948995	0.468264	3.434298	3.437366	1.253973	17.295322	0.301860	31.384170	-12.447042	0.000000	-4.143441	-2.998440	14.223585	1.374637	0.023992	31.374107	-15.219704	0.000000	0.015667	0.648056	0.732402	0.029094	0.861914	0.778178	0.025739	1.575683	0.778178	0.017905	1.575683	0.640852	0.014548	1.321516	0.595077	0.008952	1.003839	0.549302	0.111905	7.330939	4.073402	0.000000	0.000000	21.284105	1.194903	1.198465	194.202508	-156.691400	286.985352	15.585753	17.523440	-9.495475	-4.775064	17.842398	-12.856507	149.291395	2.341999	1.960149	-7.061288	-12.483888
1.800000	0.089194	-2.332197	69.985812	0.199995	0.951063	0.468742	3.833165	3.661413	0.422766	17.177647	0.299806	30.847086	-12.101226	0.000000	-3.463854	-3.304629	13.611897	1.764500	0.030796	31.265287	-14.080420	0.000000	0.046536	0.718689	0.667477	0.086423	0.955857	0.709194	0.076455	1.747421	0.709194	0.053186	1.747421	0.584042	0.043214	1.465551	0.542325	0.026591	1.113249	0.500608	0.332405	8.129955	3.712307	0.000000	0.000000	21.469891	0.790982	1.668213	193.780589	-154.872211	282.193327	18.642353	25.190705	-10.184451	-5.015843	18.979650	-12.938362	152.896273	2.099169	1.790813	-5.658555	-14.123779
1.820000	0.324128	-2.684096	70.419930	0.197912	0.953382	0.469120	4.122485	3.849257	-0.387257	17.026334	0.297166	30.339804	-11.542648	0.000000	-2.866697	-3.586382	12.729633	2.169326	0.037862	31.214598	-12.690456	0.000000	0.072879	0.786828	0.631132	0.135343	1.046482	0.670577	0.119733	1.913094	0.670577	0.083293	1.913094	0.552240	0.067675	1.604500	0.512794	0.041643	1.218797	0.473349	0.520567	8.900758	3.510165	0.000000	0.000000	21.545915	0.357118	2.071103	192.790755	-152.846589	276.088327	22.271207	34.149863	-10.793518	-5.156024	20.100437	-13.046144	156.979994	1.808027	1.745013	-4.109647	-15.820706
1.840000	0.584896	-2.939693	70.762010	0.195940	0.956071	0.469515	4.274223	4.013168	-1.157277	16.814326	0.293465	29.817745	-10.801095	0.000000	-2.364255	-3.855458	11.398094	2.603111	0.045433	31.238107	-10.839335	0.000000	0.091510	0.855438	0.651732	0.169943	1.137733	0.692465	0.150342	2.079913	0.692465	0.104587	2.079913	0.570265	0.084976	1.744410	0.529532	0.052289	1.325074	0.488799	0.653647	9.676890	3.624737	0.000000	0.000000	21.478894	-0.210471	2.316612	191.212349	-150.666615	268.769291	26.310116	43.707501	-11.122324	-5.130409	22.045395	-12.509698	166.548968	-0.733127	-1.124769	-0.447475	-18.904734
1.860000	0.733388	-3.136625	71.016372	0.194515	0.958651	0.469898	4.385185	4.077769	-1.763189	16.592673	0.289597	29.407863	-10.043170	0.000000	-1.915835	-4.015295	10.004292	2.990594	0.052196	31.257543	-9.006473	0.000000	0.107285	0.899382	0.667695	0.199240	1.196178	0.709426	0.176259	2.186758	0.709426	0.122616	2.186758	0.584233	0.099625	1.834020	0.542502	0.061303	1.393143	0.500771	0.766329	10.173991	3.713518	0.000000	0.000000	21.455766	-0.555634	2.499170	189.615773	-148.589080	261.202580	30.355390	52.761111	-11.143837	-5.009309	23.404839	-12.726362	172.268513	-1.710943	-2.317266	2.767679	-20.976979
1.880000	0.763864	-3.281085	71.197949	0.193614	0.961051	0.470329	4.467769	4.049817	-2.184784	16.363780	0.285602	29.101936	-9.330209	0.000000	-1.513570	-4.070164	8.563203	3.320615	0.057956	31.273055	-7.184412	0.000000	0.119629	0.919237	0.686974	0.222163	1.222586	0.729909	0.196538	2.235034	0.729909	0.136724	2.235034	0.601102	0.111087	1.874509	0.558166	0.068356	1.423899	0.515230	0.854497	10.398596	3.820741	0.000000	0.000000	21.503322	-0.716357	2.635615	188.057358	-146.732896	253.362398	34.099812	61.019226	-10.824025	-4.778667	24.269436	-13.566111	174.378407	-1.422678	-2.103251	5.500121	-22.136162
1.900000	0.702851	-3.385580	71.272153	0.193179	0.963195	0.470804	4.512741	3.962600	-2.345180	16.095061	0.280912	28.868281	-8.730359	0.000000	-1.164735	-4.044030	6.971681	3.582503	0.062526	31.303546	-5.298797	0.000000	0.128162	0.922607	0.729671	0.238010	1.227067	0.775275	0.210558	2.243226	0.775275	0.146477	2.243226	0.638462	0.119011	1.881380	0.592858	0.073232	1.429118	0.547253	0.915450	10.436712	4.058210	0.000000	0.000000	21.637473	-0.782403	2.785984	186.321965	-145.151193	243.269748	37.589573	69.906728	-10.556490	-4.101522	24.743223	-14.859138	173.311775	-0.223728	-1.028721	7.692797	-22.580206
